<svg xmlns="http://www.w3.org/2000/svg" viewBox="0 0 582 489"><defs><style>.cls-1{fill:#fff;}.cls-2,.cls-3,.cls-4{font-size:12px;}.cls-2,.cls-3{font-family:Arial-BoldMT, Arial;font-weight:700;}.cls-3{text-decoration:underline;}.cls-4{font-family:ArialMT, Arial;}.cls-5{letter-spacing:-0.07em;}.cls-6{letter-spacing:-0.02em;}.cls-7{fill:none;}.cls-7,.cls-8{stroke:#000;stroke-miterlimit:10;}</style></defs><g id="Layer_2" data-name="Layer 2"><g id="Layer_1-2" data-name="Layer 1"><rect class="cls-1" x="28.5" y="61.5" width="205" height="132"/><path d="M233,62V193H29V62H233m1-1H28V194H234V61Z"/><rect class="cls-1" x="294.5" y="40.5" width="259" height="202"/><path d="M553,41V242H295V41H553m1-1H294V243H554V40Z"/><rect class="cls-1" x="28.5" y="61.5" width="205" height="43"/><path d="M233,62v42H29V62H233m1-1H28v44H234V61Z"/><rect class="cls-1" x="28.5" y="104.5" width="58" height="89"/><path d="M86,105v88H29V105H86m1-1H28v90H87V104Z"/><path d="M233,105v42H29V105H233m1-1H28v44H234V104Z"/><rect class="cls-1" x="294.5" y="40.5" width="259" height="42"/><path d="M553,41V82H295V41H553m1-1H294V83H554V40Z"/><path d="M553,83v42H295V83H553m1-1H294v44H554V82Z"/><path d="M372,83V242H295V83h77m1-1H294V243h79V82Z"/><text class="cls-2" transform="translate(99 89.88)">subscription</text><text class="cls-2" transform="translate(9 19.88)">EO Notification Service</text><text class="cls-2" transform="translate(349 65.88)">subscription_event_type</text><text class="cls-2" transform="translate(45 131.88)">PK</text><text class="cls-3" transform="translate(99 131.88)">id</text><text class="cls-2" transform="translate(172 131.88)">UUID</text><text class="cls-2" transform="translate(511 147.88)">UUID</text><text class="cls-3" transform="translate(326 109.88)">PK</text><text class="cls-3" transform="translate(326 147.88)">FK</text><text class="cls-3" transform="translate(388 109.88)">id</text><text class="cls-3" transform="translate(385 147.88)">subscription_id</text><text class="cls-3" transform="translate(385 172.88)">event_type</text><text class="cls-4" transform="translate(384 199.88)">filter_criteria</text><text class="cls-4" transform="translate(384 219.88)">fields</text><text class="cls-2" transform="translate(500 109.88)">BIGINT</text><text class="cls-2" transform="translate(96.73 165.97)">address</text><text class="cls-4" transform="translate(96.73 185.97)">tenant</text><text class="cls-3" transform="translate(482 174.97)"><tspan class="cls-5">V</tspan><tspan x="7.11" y="0">ARCHAR</tspan></text><text class="cls-4" transform="translate(485 199.97)"><tspan class="cls-5">V</tspan><tspan x="7.11" y="0">ARCHAR</tspan></text><text class="cls-4" transform="translate(485 221.97)"><tspan class="cls-5">V</tspan><tspan x="7.11" y="0">ARCHAR</tspan></text><rect class="cls-1" x="218.5" y="257.5" width="259" height="202"/><path d="M477,258V459H219V258H477m1-1H218V460H478V257Z"/><rect class="cls-1" x="218.5" y="257.5" width="259" height="42"/><path d="M477,258v41H219V258H477m1-1H218v43H478V257Z"/><path d="M477,300v42H219V300H477m1-1H218v44H478V299Z"/><path d="M296,300V459H219V300h77m1-1H218V460h79V299Z"/><text class="cls-2" transform="translate(300 282.88)">current_dispatch</text><text class="cls-2" transform="translate(406 364.88)"><tspan class="cls-5">V</tspan><tspan x="7.11" y="0">ARCHAR</tspan></text><text class="cls-3" transform="translate(250 326.88)">PK</text><text class="cls-3" transform="translate(312 326.88)">(event_type</text><text class="cls-3" transform="translate(385 326.88)">address</text><text class="cls-3" transform="translate(436 326.88)">hash)</text><text class="cls-2" transform="translate(380 326.88)">,</text><text class="cls-2" transform="translate(432 326.88)">,</text><text class="cls-2" transform="translate(309 364.88)">event_id</text><text class="cls-2" transform="translate(309 389.88)">address</text><text class="cls-2" transform="translate(308 416.88)">hash</text><text class="cls-4" transform="translate(308 436.88)">payload</text><text class="cls-2" transform="translate(406 391.97)"><tspan class="cls-5">V</tspan><tspan x="7.11" y="0">ARCHAR</tspan></text><text class="cls-2" transform="translate(409 416.97)">INT</text><text class="cls-4" transform="translate(409 438.97)">TEX<tspan class="cls-6" x="23.34" y="0">T</tspan></text><text class="cls-4" transform="translate(172 185.97)"><tspan class="cls-5">V</tspan><tspan x="7.11" y="0">ARCHAR</tspan></text><text class="cls-2" transform="translate(171 166.97)"><tspan class="cls-5">V</tspan><tspan x="7.11" y="0">ARCHAR</tspan></text><line x1="552" y1="125" x2="284" y2="126"/><line class="cls-7" x1="552" y1="125" x2="286.83" y2="125.99"/><polygon points="292.73 122.79 293.07 123.73 286.92 125.99 293.09 128.21 292.75 129.15 284 126 292.73 122.79"/><line class="cls-8" x1="234" y1="126.5" x2="285" y2="126.5"/><line class="cls-8" x1="284.5" y1="121.5" x2="284.5" y2="130.5"/><rect class="cls-7" x="0.5" y="0.5" width="581" height="488"/><rect class="cls-7" x="0.5" y="0.5" width="151" height="35"/></g></g></svg>