<svg xmlns="http://www.w3.org/2000/svg" xmlns:xlink="http://www.w3.org/1999/xlink" viewBox="0 0 791.6 612.63"><defs><style>.cls-1,.cls-10,.cls-2,.cls-3,.cls-31,.cls-4,.cls-5,.cls-6,.cls-7,.cls-8,.cls-9{fill:none;}.cls-1,.cls-10,.cls-2,.cls-3,.cls-5,.cls-6,.cls-7,.cls-8,.cls-9{clip-rule:evenodd;}.cls-2{clip-path:url(#clip-path);}.cls-3{clip-path:url(#clip-path-2);}.cls-5{clip-path:url(#clip-path-3);}.cls-6{clip-path:url(#clip-path-4);}.cls-7{clip-path:url(#clip-path-5);}.cls-8{clip-path:url(#clip-path-6);}.cls-9{clip-path:url(#clip-path-7);}.cls-10{clip-path:url(#clip-path-8);}.cls-11{font-size:14px;}.cls-11,.cls-33{font-family:ArialMT, Arial;}.cls-12{clip-path:url(#clip-path-9);}.cls-13{clip-path:url(#clip-path-10);}.cls-14{fill:#010101;}.cls-15{clip-path:url(#clip-path-11);}.cls-16{clip-path:url(#clip-path-12);}.cls-17{clip-path:url(#clip-path-13);}.cls-18{clip-path:url(#clip-path-14);}.cls-19{clip-path:url(#clip-path-15);}.cls-20{clip-path:url(#clip-path-16);}.cls-21{clip-path:url(#clip-path-17);}.cls-22{clip-path:url(#clip-path-18);}.cls-23{clip-path:url(#clip-path-19);}.cls-24{clip-path:url(#clip-path-20);}.cls-25{fill:#181818;}.cls-26{clip-path:url(#clip-path-21);}.cls-27{clip-path:url(#clip-path-22);}.cls-28{clip-path:url(#clip-path-23);}.cls-29{clip-path:url(#clip-path-24);}.cls-30,.cls-32{fill:#fff;}.cls-30,.cls-31{stroke:#000;stroke-miterlimit:10;}.cls-30{stroke-width:2px;}.cls-33{font-size:10px;}.cls-34{letter-spacing:-0.11em;}.cls-35{letter-spacing:-0.02em;}</style><clipPath id="clip-path"><polygon class="cls-1" points="204.5 85.08 289.7 85.08 289.7 0 204.5 0 204.5 85.08 204.5 85.08"/></clipPath><clipPath id="clip-path-2"><polygon class="cls-1" points="502.5 85.08 587.7 85.08 587.7 0 502.5 0 502.5 85.08 502.5 85.08"/></clipPath><clipPath id="clip-path-3"><polygon class="cls-1" points="347.67 240.04 444.53 240.04 444.53 143.04 347.67 143.04 347.67 240.04 347.67 240.04"/></clipPath><clipPath id="clip-path-4"><polygon class="cls-1" points="238.42 330.42 289.78 330.42 289.78 270.66 238.42 270.66 238.42 330.42 238.42 330.42"/></clipPath><clipPath id="clip-path-5"><polygon class="cls-1" points="103.42 446.42 154.78 446.42 154.78 386.66 103.42 386.66 103.42 446.42 103.42 446.42"/></clipPath><clipPath id="clip-path-6"><polygon class="cls-1" points="439.6 628.22 439.6 576.86 340.6 576.86 340.6 628.22 439.6 628.22 439.6 628.22"/></clipPath><clipPath id="clip-path-7"><polygon class="cls-1" points="303.83 85.08 389.03 85.08 389.03 0 303.83 0 303.83 85.08 303.83 85.08"/></clipPath><clipPath id="clip-path-8"><polygon class="cls-1" points="403.17 85.08 488.37 85.08 488.37 0 403.17 0 403.17 85.08 403.17 85.08"/></clipPath><clipPath id="clip-path-9" transform="translate(0 -13.54)"><polygon class="cls-2" points="204.5 0 289.7 0 289.7 85.08 204.5 85.08 204.5 0 204.5 0"/></clipPath><clipPath id="clip-path-10" transform="translate(0 -13.54)"><polygon class="cls-4" points="204.5 85.08 289.7 85.08 289.7 0 204.5 0 204.5 85.08 204.5 85.08"/></clipPath><clipPath id="clip-path-11" transform="translate(0 -13.54)"><polygon class="cls-9" points="303.83 0 389.03 0 389.03 85.08 303.83 85.08 303.83 0 303.83 0"/></clipPath><clipPath id="clip-path-12" transform="translate(0 -13.54)"><polygon class="cls-4" points="303.83 85.08 389.03 85.08 389.03 0 303.83 0 303.83 85.08 303.83 85.08"/></clipPath><clipPath id="clip-path-13" transform="translate(0 -13.54)"><polygon class="cls-10" points="403.17 0 488.37 0 488.37 85.08 403.17 85.08 403.17 0 403.17 0"/></clipPath><clipPath id="clip-path-14" transform="translate(0 -13.54)"><polygon class="cls-4" points="403.17 85.08 488.37 85.08 488.37 0 403.17 0 403.17 85.08 403.17 85.08"/></clipPath><clipPath id="clip-path-15" transform="translate(0 -13.54)"><polygon class="cls-3" points="502.5 0 587.7 0 587.7 85.08 502.5 85.08 502.5 0 502.5 0"/></clipPath><clipPath id="clip-path-16" transform="translate(0 -13.54)"><polygon class="cls-4" points="502.5 85.08 587.7 85.08 587.7 0 502.5 0 502.5 85.08 502.5 85.08"/></clipPath><clipPath id="clip-path-17" transform="translate(0 -13.54)"><polygon class="cls-5" points="347.67 143.04 444.53 143.04 444.53 240.04 347.67 240.04 347.67 143.04 347.67 143.04"/></clipPath><clipPath id="clip-path-18" transform="translate(0 -13.54)"><polygon class="cls-4" points="347.67 240.04 444.53 240.04 444.53 143.04 347.67 143.04 347.67 240.04 347.67 240.04"/></clipPath><clipPath id="clip-path-19" transform="translate(0 -13.54)"><polygon class="cls-6" points="238.42 270.66 289.78 270.66 289.78 330.42 238.42 330.42 238.42 270.66 238.42 270.66"/></clipPath><clipPath id="clip-path-20" transform="translate(0 -13.54)"><polygon class="cls-4" points="238.42 330.42 289.78 330.42 289.78 270.66 238.42 270.66 238.42 330.42 238.42 330.42"/></clipPath><clipPath id="clip-path-21" transform="translate(0 -13.54)"><polygon class="cls-7" points="103.42 386.66 154.78 386.66 154.78 446.42 103.42 446.42 103.42 386.66 103.42 386.66"/></clipPath><clipPath id="clip-path-22" transform="translate(0 -13.54)"><polygon class="cls-4" points="103.42 446.42 154.78 446.42 154.78 386.66 103.42 386.66 103.42 446.42 103.42 446.42"/></clipPath><clipPath id="clip-path-23" transform="translate(0 -13.54)"><polygon class="cls-8" points="340.6 628.22 340.6 576.86 439.6 576.86 439.6 628.22 340.6 628.22 340.6 628.22"/></clipPath><clipPath id="clip-path-24" transform="translate(0 -13.54)"><polygon class="cls-4" points="439.6 628.22 439.6 576.86 340.6 576.86 340.6 628.22 439.6 628.22 439.6 628.22"/></clipPath></defs><g id="Layer_2" data-name="Layer 2"><g id="Layer_1-2" data-name="Layer 1"><text class="cls-11" transform="translate(228.7 34.52)">Client</text><text class="cls-11" transform="translate(328.7 34.52)">Client</text><g class="cls-12"><g class="cls-13"><path class="cls-14" d="M286,16.93V71.1H211.29V16.93H286m3.4-3.39H207.9v61h81.52V13.54Z" transform="translate(0 -13.54)"/><polygon class="cls-14" points="214.69 6.84 218.09 6.84 218.09 10.12 214.69 10.12 214.69 6.84 214.69 6.84"/></g></g><g class="cls-15"><g class="cls-16"><path class="cls-14" d="M385.35,16.93V71.1H310.63V16.93h74.72m3.4-3.39H307.23v61h81.52V13.54Z" transform="translate(0 -13.54)"/><polygon class="cls-14" points="314.02 6.84 317.42 6.84 317.42 10.12 314.02 10.12 314.02 6.84 314.02 6.84"/></g></g><g class="cls-17"><g class="cls-18"><path class="cls-14" d="M484.69,16.93V71.1H410V16.93h74.73m3.39-3.39H406.56v61h81.52V13.54Z" transform="translate(0 -13.54)"/><polygon class="cls-14" points="413.36 6.84 416.75 6.84 416.75 10.12 413.36 10.12 413.36 6.84 413.36 6.84"/></g></g><g class="cls-19"><g class="cls-20"><path class="cls-14" d="M584,16.93V71.1H509.29V16.93H584m3.4-3.39H505.9v61h81.52V13.54Z" transform="translate(0 -13.54)"/><polygon class="cls-14" points="512.69 6.84 516.09 6.84 516.09 10.12 512.69 10.12 512.69 6.84 512.69 6.84"/></g></g><g class="cls-21"><g class="cls-22"><polygon class="cls-14" points="362.15 160.3 366.01 160.3 366.01 164.16 362.15 164.16 362.15 160.3 362.15 160.3"/><path class="cls-14" d="M404.63,158.48v27h34.75v-27Zm30.89,23.16h-27v-19.3h27v19.3Z" transform="translate(0 -13.54)"/><polygon class="cls-14" points="412.39 152.54 416.25 152.54 416.25 156.4 412.39 156.4 412.39 152.54 412.39 152.54"/><path class="cls-14" d="M434.17,189.36H400.69v-19.3h0V166.2H354.46v63.65h81.1V189.36ZM358.33,226V170.06h38.61v23.16H431.7v32.89L358.33,226Z" transform="translate(0 -13.54)"/></g></g><g class="cls-23"><g class="cls-24"><path class="cls-25" d="M265,272.71c-13.58,0-24.57,3.67-24.57,8.2v39.63c0,6.29,12.28,9.57,24.57,9.57s24.57-3.28,24.57-9.57V280.91c0-4.53-11-8.2-24.57-8.2Zm0,4.1c11.32,0,18.18,2.58,20.1,4.1-1.92,1.52-8.78,4.1-20.1,4.1s-18.19-2.58-20.11-4.1c1.92-1.52,8.78-4.1,20.11-4.1Zm0,49.2c-12.7,0-20.48-3.55-20.48-5.47v-35.1c4.4,2.21,11.92,3.67,20.48,3.67s16.07-1.46,20.47-3.67v35.1c0,1.92-7.78,5.47-20.47,5.47Z" transform="translate(0 -13.54)"/></g></g><g class="cls-26"><g class="cls-27"><path class="cls-25" d="M130,388.71c-13.58,0-24.57,3.67-24.57,8.2v39.63c0,6.29,12.28,9.57,24.57,9.57s24.57-3.28,24.57-9.57V396.91c0-4.53-11-8.2-24.57-8.2Zm0,4.1c11.32,0,18.18,2.58,20.1,4.1-1.92,1.52-8.78,4.1-20.1,4.1s-18.19-2.58-20.11-4.1c1.92-1.52,8.78-4.1,20.11-4.1Zm0,49.2c-12.7,0-20.48-3.55-20.48-5.47v-35.1c4.4,2.21,11.92,3.67,20.48,3.67s16.07-1.46,20.47-3.67v35.1c0,1.92-7.78,5.47-20.47,5.47Z" transform="translate(0 -13.54)"/></g></g><g class="cls-28"><g class="cls-29"><path class="cls-25" d="M344,601.6c0,13.58,6.08,24.57,13.59,24.57h65.65c10.42,0,15.86-12.28,15.86-24.57S433.65,577,423.23,577H357.58C350.07,577,344,588,344,601.6Zm6.8,0c0-11.32,4.28-18.18,6.79-20.11,2.51,1.93,6.79,8.79,6.79,20.11s-4.28,18.18-6.79,20.11c-2.51-1.93-6.79-8.79-6.79-20.11Zm81.51,0c0,12.7-5.88,20.48-9.07,20.48H365.09c3.66-4.41,6.07-11.92,6.07-20.48s-2.41-16.07-6.07-20.47h58.14c3.19,0,9.07,7.78,9.07,20.47Z" transform="translate(0 -13.54)"/></g></g><rect class="cls-30" x="343.6" y="265.5" width="108" height="108"/><rect class="cls-30" x="491.6" y="277.5" width="84" height="84"/><rect class="cls-30" x="88.6" y="235.5" width="84" height="84"/><rect class="cls-30" x="355.6" y="426.5" width="84" height="84"/><rect class="cls-30" x="615.6" y="277.5" width="84" height="81"/><polyline class="cls-31" points="354.6 187.25 264.6 187.25 264.6 250.5"/><polygon points="261.69 248.52 264.6 259.36 267.5 248.52 261.69 248.52"/><line class="cls-32" x1="289.61" y1="287" x2="343.6" y2="287"/><line class="cls-31" x1="298.47" y1="287" x2="334.74" y2="287"/><polygon points="300.45 289.9 289.61 287 300.45 284.09 300.45 289.9"/><polygon points="332.76 289.9 343.6 287 332.76 284.09 332.76 289.9"/><line class="cls-32" x1="3.6" y1="265" x2="88.6" y2="265"/><line class="cls-31" x1="12.46" y1="265" x2="79.74" y2="265"/><polygon points="14.44 267.9 3.6 265 14.44 262.09 14.44 267.9"/><polygon points="77.76 267.9 88.6 265 77.76 262.09 77.76 267.9"/><line class="cls-32" x1="3.6" y1="290" x2="88.6" y2="290"/><line class="cls-31" x1="12.46" y1="290" x2="79.74" y2="290"/><polygon points="14.44 292.9 3.6 290 14.44 287.09 14.44 292.9"/><polygon points="77.76 292.9 88.6 290 77.76 287.09 77.76 292.9"/><line class="cls-32" x1="699.6" y1="305" x2="784.6" y2="305"/><line class="cls-31" x1="708.46" y1="305" x2="775.74" y2="305"/><polygon points="710.44 307.9 699.6 305 710.44 302.09 710.44 307.9"/><polygon points="773.76 307.9 784.6 305 773.76 302.09 773.76 307.9"/><line class="cls-32" x1="699.6" y1="330" x2="784.6" y2="330"/><line class="cls-31" x1="708.46" y1="330" x2="775.74" y2="330"/><polygon points="710.44 332.9 699.6 330 710.44 327.09 710.44 332.9"/><polygon points="773.76 332.9 784.6 330 773.76 327.09 773.76 332.9"/><line class="cls-32" x1="575.61" y1="318" x2="615.6" y2="318"/><line class="cls-31" x1="575.61" y1="318" x2="606.74" y2="318"/><polygon points="604.76 320.9 615.6 318 604.76 315.09 604.76 320.9"/><polyline class="cls-32" points="154.61 403 247.1 403 247.1 358.5 343.6 358.5"/><polyline class="cls-31" points="163.47 403 247.1 403 247.1 358.5 334.74 358.5"/><polygon points="165.45 405.9 154.61 403 165.45 400.09 165.45 405.9"/><polygon points="332.76 361.4 343.6 358.5 332.76 355.59 332.76 361.4"/><line class="cls-32" x1="397.6" y1="426.5" x2="397.6" y2="373.12"/><line class="cls-31" x1="397.6" y1="426.5" x2="397.6" y2="381.98"/><polygon points="400.5 383.96 397.6 373.12 394.69 383.96 400.5 383.96"/><line class="cls-32" x1="397.6" y1="563.5" x2="397.6" y2="510.12"/><line class="cls-31" x1="397.6" y1="563.5" x2="397.6" y2="518.98"/><polygon points="400.5 520.96 397.6 510.12 394.69 520.96 400.5 520.96"/><text class="cls-11" transform="translate(428.1 35.1)">Client</text><text class="cls-11" transform="translate(404.6 410.1)">Events</text><text class="cls-33" transform="translate(354 316.23)">- Check event<tspan x="0" y="12">- Match subscriptions</tspan><tspan x="0" y="24">- Filtering</tspan><tspan x="0" y="36">- Projection</tspan></text><text class="cls-11" transform="translate(398.67 133.1)">Notifications</text><text class="cls-11" transform="translate(704.94 295.52)">healthchecks</text><text class="cls-11" transform="translate(719.24 348.52)">metrics</text><text class="cls-11" transform="translate(26.73 306.52)">delete<tspan x="-18.28" y="16.8">subscription</tspan></text><text class="cls-11" transform="translate(28.34 240.52)">create<tspan x="-17.9" y="16.8">subscription</tspan></text><text class="cls-11" transform="translate(378.9 285.1)">Event <tspan x="-13.61" y="16.8">Processor</tspan></text><text class="cls-11" transform="translate(91.28 452.1)">Subscription <tspan class="cls-34" x="21.79" y="16.8">T</tspan><tspan x="28.79" y="16.8">able</tspan></text><text class="cls-11" transform="translate(237.56 331.1)">Dispatch<tspan class="cls-34" x="10.5" y="16.8">T</tspan><tspan x="17.5" y="16.8">able</tspan></text><text class="cls-11" transform="translate(530.1 35.1)">Client</text><text class="cls-33" transform="translate(361.36 187.23)">Notification <tspan x="0.83" y="12">Dispatcher</tspan><tspan x="11.49" y="24">RES</tspan><tspan class="cls-35" x="32.05" y="24">T</tspan></text><polyline class="cls-31" points="389.03 152.66 389.03 110.95 258.22 63.94"/><polygon points="261.07 61.88 249.88 60.94 259.11 67.34 261.07 61.88"/><line class="cls-31" x1="389.1" y1="111" x2="354.86" y2="68.02"/><polygon points="358.37 67.76 349.34 61.09 353.82 71.38 358.37 67.76"/><line class="cls-31" x1="389.52" y1="110.95" x2="441.48" y2="66.69"/><polygon points="441.86 70.19 448.22 60.94 438.09 65.76 441.86 70.19"/><line class="cls-31" x1="389.52" y1="111.33" x2="541.6" y2="62.64"/><polygon points="540.6 66.02 550.04 59.94 538.83 60.48 540.6 66.02"/><text class="cls-11" transform="translate(91.58 275.52)">Subscription<tspan x="8.18" y="16.8">Controller</tspan></text><text class="cls-11" transform="translate(494.03 313.52)">Performance<tspan x="12.45" y="16.8">Collector</tspan></text><text class="cls-11" transform="translate(631.03 313.52)">Actuator<tspan x="-4.28" y="16.8">Controller</tspan></text><text class="cls-11" transform="translate(379.2 592.52)">Kafka</text><text class="cls-11" transform="translate(379.2 464.52)">Kafka<tspan x="-7" y="16.8">Listener</tspan></text></g></g></svg>