<svg xmlns="http://www.w3.org/2000/svg" viewBox="0 0 1166 749"><defs><style>.cls-1,.cls-21,.cls-3,.cls-4{fill:none;}.cls-1,.cls-21,.cls-23,.cls-3,.cls-4,.cls-5,.cls-6,.cls-7,.cls-8,.cls-9{stroke:#000;stroke-miterlimit:10;stroke-width:2px;}.cls-1{stroke-dasharray:6 6;}.cls-2{fill:#fff;}.cls-4{stroke-dasharray:6.71 6.71;}.cls-5{fill:#e6e6e6;}.cls-6{fill:#fbb03b;}.cls-7{fill:#f2f2f2;}.cls-8{fill:#d9e021;}.cls-9{fill:#b3b3b3;}.cls-10,.cls-12{font-size:10px;}.cls-10,.cls-22{font-family:Arial-BoldMT, Arial;font-weight:700;}.cls-11{letter-spacing:-0.04em;}.cls-12,.cls-14{font-family:ArialMT, Arial;}.cls-13{letter-spacing:-0.06em;}.cls-14{font-size:9px;}.cls-15{letter-spacing:-0.02em;}.cls-16{letter-spacing:-0.02em;}.cls-17{letter-spacing:-0.06em;}.cls-18{letter-spacing:0em;}.cls-19{letter-spacing:-0.02em;}.cls-20{letter-spacing:0em;}.cls-21{stroke-dasharray:6;}.cls-22{font-size:12px;}.cls-23{fill:#ff931e;}</style></defs><g id="Layer_2" data-name="Layer 2"><g id="Layer_1-2" data-name="Layer 1"><polyline class="cls-1" points="421.62 444.29 888 442.96 888 41.45 467.93 41"/><polygon points="471.92 37.62 468.52 41 471.91 44.4 469.03 44.39 465.64 41 469.04 37.61 471.92 37.62"/><rect class="cls-2" x="816" y="189" width="131" height="38"/><line class="cls-2" x1="396.48" y1="79.75" x2="397" y2="135"/><line class="cls-3" x1="396.48" y1="79.75" x2="396.51" y2="82.75"/><line class="cls-4" x1="396.57" y1="89.46" x2="396.92" y2="126.36"/><line class="cls-3" x1="396.95" y1="129.71" x2="396.98" y2="132.71"/><polygon points="393.55 128.76 396.97 132.12 400.33 128.7 400.36 131.58 397 135 393.58 131.64 393.55 128.76"/><rect class="cls-2" x="344" y="87" width="112" height="21"/><rect class="cls-5" x="11.66" y="270.4" width="134.34" height="80.6"/><rect class="cls-5" x="170.37" y="270.4" width="134.34" height="80.6"/><rect class="cls-5" x="329.08" y="270.4" width="134.34" height="81.6"/><rect class="cls-5" x="487.8" y="270.4" width="134.34" height="81.6"/><rect class="cls-6" x="324" y="135" width="145" height="78"/><rect class="cls-7" x="329.66" y="1" width="134.34" height="78"/><path class="cls-8" d="M387.85,539.7a13.1,13.1,0,0,1,1.66.11H528.94v85.48H389.51a15.25,15.25,0,0,1-1.66.1c-13.72,0-24.85-19.18-24.85-42.84S374.13,539.7,387.85,539.7Z"/><ellipse class="cls-8" cx="532.55" cy="582.55" rx="24.45" ry="43.45"/><path class="cls-8" d="M260.85,650.71a15.25,15.25,0,0,1,1.66.11H401.94v87.45H262.51a13.1,13.1,0,0,1-1.66.11c-13.72,0-24.85-19.63-24.85-43.83S247.13,650.71,260.85,650.71Z"/><ellipse class="cls-8" cx="405.55" cy="694.55" rx="24.45" ry="44.45"/><rect class="cls-9" x="286.01" y="436.16" width="134.34" height="76.84"/><rect class="cls-8" x="45.01" y="435.16" width="134.34" height="79.84"/><rect class="cls-5" x="642.01" y="265.9" width="134.34" height="74.3"/><rect class="cls-5" x="651.01" y="276.7" width="134.34" height="74.3"/><rect class="cls-5" x="943.34" y="429.16" width="158.07" height="78.44"/><rect class="cls-5" x="953.93" y="440.56" width="158.07" height="78.44"/><line class="cls-2" x1="395" y1="212.75" x2="394.48" y2="268"/><line class="cls-3" x1="395" y1="212.75" x2="394.97" y2="215.75"/><line class="cls-4" x1="394.91" y1="222.46" x2="394.56" y2="259.36"/><line class="cls-3" x1="394.53" y1="262.71" x2="394.5" y2="265.71"/><polygon points="391.15 261.7 394.5 265.12 397.93 261.76 397.9 264.64 394.48 268 391.12 264.58 391.15 261.7"/><line class="cls-2" x1="399.15" y1="213.61" x2="557" y2="269"/><line class="cls-1" x1="399.15" y1="213.61" x2="554.84" y2="268.24"/><polygon points="549.96 270.12 554.28 268.05 552.21 263.73 554.92 264.68 557 269 552.68 271.08 549.96 270.12"/><line class="cls-2" x1="407" y1="214" x2="714" y2="265"/><line class="cls-1" x1="407" y1="214" x2="711.75" y2="264.63"/><polygon points="707.26 267.32 711.16 264.53 708.37 260.63 711.21 261.1 714 265 710.1 267.79 707.26 267.32"/><line class="cls-2" x1="387.22" y1="213.84" x2="237.95" y2="269.56"/><line class="cls-1" x1="387.22" y1="213.84" x2="240.09" y2="268.76"/><polygon points="242.64 264.19 240.65 268.55 245.01 270.55 242.31 271.55 237.95 269.56 239.94 265.2 242.64 264.19"/><line class="cls-2" x1="376.22" y1="213.15" x2="73.54" y2="269.56"/><line class="cls-1" x1="376.22" y1="213.15" x2="75.79" y2="269.14"/><polygon points="79.08 265.08 76.37 269.03 80.33 271.75 77.5 272.27 73.54 269.56 76.25 265.61 79.08 265.08"/><line class="cls-2" x1="349" y1="435" x2="72" y2="351"/><line class="cls-1" x1="346.81" y1="434.34" x2="72" y2="351"/><polygon points="343.98 429.94 346.25 434.17 342.02 436.43 344.77 437.26 349 435 346.74 430.77 343.98 429.94"/><line class="cls-2" x1="238" y1="353" x2="358" y2="435"/><line class="cls-1" x1="238" y1="353" x2="356.11" y2="433.71"/><polygon points="350.91 434.26 355.63 433.38 354.74 428.66 357.11 430.29 358 435 353.29 435.89 350.91 434.26"/><line class="cls-2" x1="387.35" y1="354.16" x2="362" y2="436"/><line class="cls-1" x1="387.35" y1="354.16" x2="362.68" y2="433.82"/><polygon points="360.62 429.01 362.85 433.25 367.09 431.01 366.24 433.76 362 436 359.76 431.76 360.62 429.01"/><line class="cls-2" x1="717" y1="351" x2="378" y2="435"/><line class="cls-1" x1="717" y1="351" x2="380.22" y2="434.45"/><polygon points="383.27 430.2 380.79 434.31 384.9 436.78 382.11 437.48 378 435 380.48 430.89 383.27 430.2"/><line class="cls-2" x1="317" y1="647" x2="354" y2="512"/><line class="cls-1" x1="317" y1="647" x2="353.4" y2="514.2"/><polygon points="355.61 518.94 353.24 514.77 349.07 517.15 349.83 514.37 354 512 356.37 516.17 355.61 518.94"/><line class="cls-2" x1="462" y1="539" x2="365" y2="514"/><line class="cls-1" x1="462" y1="539" x2="367.21" y2="514.57"/><polygon points="371.92 512.28 367.79 514.72 370.23 518.85 367.44 518.13 365 514 369.13 511.56 371.92 512.28"/><line class="cls-2" x1="942" y1="567" x2="555.07" y2="566.73"/><line class="cls-1" x1="942" y1="567" x2="557.36" y2="566.73"/><polygon points="561.34 563.35 557.95 566.73 561.34 570.13 558.46 570.13 555.07 566.73 558.46 563.34 561.34 563.35"/><line class="cls-2" x1="943.04" y1="691.01" x2="430.33" y2="691.01"/><line class="cls-1" x1="943.04" y1="691.01" x2="432.62" y2="691.01"/><polygon points="436.6 687.62 433.21 691.01 436.6 694.4 433.72 694.4 430.33 691.01 433.72 687.62 436.6 687.62"/><line class="cls-2" x1="940" y1="462" x2="420.24" y2="462.96"/><line class="cls-1" x1="940" y1="462" x2="422.53" y2="462.96"/><polygon points="426.5 459.56 423.12 462.96 426.52 466.34 423.64 466.35 420.24 462.96 423.63 459.56 426.5 459.56"/><line class="cls-2" x1="420.24" y1="477" x2="940" y2="477.96"/><line class="cls-1" x1="420.24" y1="477" x2="937.71" y2="477.96"/><polygon points="933.72 481.34 937.12 477.96 933.74 474.56 936.62 474.56 940 477.96 936.6 481.35 933.72 481.34"/><line class="cls-2" x1="283" y1="466" x2="181" y2="466"/><line class="cls-1" x1="283" y1="466" x2="183.29" y2="466"/><polygon points="187.27 462.61 183.88 466 187.27 469.39 184.39 469.39 181 466 184.39 462.61 187.27 462.61"/><line class="cls-2" x1="555" y1="354" x2="369" y2="435"/><line class="cls-1" x1="555" y1="354" x2="371.1" y2="434.09"/><polygon points="373.39 429.39 371.64 433.85 376.1 435.61 373.46 436.75 369 435 370.75 430.54 373.39 429.39"/><text class="cls-10" transform="translate(354.02 20.06)">Client<tspan class="cls-11" x="27.78" y="0"> </tspan><tspan x="30.19" y="0">Application</tspan></text><text class="cls-12" transform="translate(356.02 34.06)">[Software System]</text><text class="cls-12" transform="translate(331.02 168.06)">[Container: Java, Springboot]</text><text class="cls-12" transform="translate(332.02 303.06)">[Container: Java, Springboot]</text><text class="cls-12" transform="translate(172.02 302.06)">[Container: Java, Springboot]</text><text class="cls-12" transform="translate(14.02 303.06)">[Container: Java, Springboot]</text><text class="cls-12" transform="translate(61.02 468.06)">[Container: Postgres]</text><text class="cls-12" transform="translate(490.02 302.06)">[Container: Java, Springboot]</text><text class="cls-12" transform="translate(288.02 467.06)">[Container: Java, Springboot]</text><text class="cls-12" transform="translate(397.02 570.06)">Component: Kafka</text><text class="cls-12" transform="translate(254.66 681.06)">Component: RabbitMQ or <tspan x="28.89" y="12">anything else</tspan></text><text class="cls-12" transform="translate(653.02 302.06)">[Container: Java, Springboot]</text><text class="cls-12" transform="translate(968.02 471.06)">[Container:<tspan class="cls-13" x="48.92" y="0"> </tspan><tspan x="51.14" y="0">Anything suitable]</tspan></text><text class="cls-12" transform="translate(959.21 499.06)">Any service internal to SO willing<tspan x="23.34" y="12">to receive notifications</tspan></text><text class="cls-14" transform="translate(353.49 56.06)">An application using <tspan x="17.02" y="10.8">Notifications</tspan></text><text class="cls-12" transform="translate(344.72 95.06)">Notification subscriptions</text><text class="cls-12" transform="translate(369.82 105.06)">[RES<tspan class="cls-15" x="23.34" y="0">T</tspan><tspan class="cls-13" x="29.27" y="0"> </tspan><tspan x="31.49" y="0">API]</tspan></text><text class="cls-12" transform="translate(829.72 206.06)">Notification subscriptions</text><rect class="cls-2" x="89" y="367" width="102" height="15"/><text class="cls-12" transform="translate(86.83 377.06)">Subscribe / Unsubscribe</text><rect class="cls-2" x="217" y="376.5" width="102" height="15"/><text class="cls-12" transform="translate(214.83 386.56)">Subscribe / Unsubscribe</text><rect class="cls-2" x="332" y="389" width="102" height="15"/><text class="cls-12" transform="translate(327.83 395.06)">Subscribe / Unsubscribe</text><rect class="cls-2" x="449" y="376.5" width="102" height="15"/><text class="cls-12" transform="translate(443.83 387.56)">Subscribe / Unsubscribe</text><rect class="cls-2" x="573" y="367" width="102" height="15"/><text class="cls-14" transform="translate(576.25 377.06)">Subscribe / Unsubscribe</text><rect class="cls-2" x="713" y="445" width="102" height="15"/><text class="cls-12" transform="translate(710.83 455.06)">Subscribe / Unsubscribe</text><rect class="cls-2" x="1010" y="19" width="102" height="15"/><text class="cls-12" transform="translate(1014.09 26.06)">AD<tspan class="cls-15" x="13.89" y="0">P</tspan><tspan x="20.38" y="0" xml:space="preserve"> Components</tspan></text><text class="cls-12" transform="translate(1014.71 49.06)">OSS Common<tspan class="cls-13" x="64.46" y="0"> </tspan><tspan x="66.69" y="0">Applicaitons</tspan></text><text class="cls-12" transform="translate(1015.05 73.06)">EO Common<tspan class="cls-13" x="57.79" y="0"> </tspan><tspan x="60.02" y="0">Applications</tspan></text><text class="cls-12" transform="translate(1014.21 94.06)"><tspan xml:space="preserve">Applications Specific  Services</tspan></text><text class="cls-14" transform="translate(861.34 221.06)">[RES<tspan class="cls-16" x="21.01" y="0">T</tspan><tspan class="cls-17" x="26.34" y="0"> </tspan><tspan x="28.34" y="0">API]</tspan></text><text class="cls-12" transform="translate(751.66 556.31)">Notification event</text><text class="cls-12" transform="translate(754.66 680.31)">Notification event</text><text class="cls-12" transform="translate(629.9 493.06)">Notification </text><text class="cls-14" transform="translate(631.34 505.06)">[RES<tspan class="cls-16" x="21.01" y="0">T</tspan><tspan class="cls-17" x="26.34" y="0"> </tspan><tspan x="28.34" y="0">API]</tspan></text><text class="cls-14" transform="translate(326.98 195.06)">Checks authorization and dispatch <tspan x="10.26" y="10.8">the</tspan><tspan class="cls-17" x="22.77" y="10.8"> </tspan><tspan class="cls-18" x="24.77" y="10.8">API to the relevant service</tspan></text><text class="cls-10" transform="translate(364.04 154.06)">API Gateway</text><text class="cls-10" transform="translate(48.04 287.43)">TMF 651<tspan class="cls-11" x="40.01" y="0"> </tspan><tspan x="42.42" y="0">Agent</tspan></text><text class="cls-10" transform="translate(350.04 287.43)">ETSI SOL005<tspan class="cls-11" x="62.25" y="0"> </tspan><tspan x="64.65" y="0">Agent</tspan></text><text class="cls-10" transform="translate(513.04 287.43)">ETSI SOL003<tspan class="cls-11" x="62.25" y="0"> </tspan><tspan x="64.65" y="0">Agent</tspan></text><text class="cls-10" transform="translate(691.04 287.43)">Custom<tspan class="cls-11" x="37.22" y="0"> </tspan><tspan x="39.63" y="0">Agent</tspan></text><text class="cls-10" transform="translate(202.52 287.43)">TMF 633<tspan class="cls-11" x="40.01" y="0"> </tspan><tspan x="42.42" y="0">Agent</tspan></text><text class="cls-10" transform="translate(220.52 460.18)">Users</text><text class="cls-12" transform="translate(222.52 477.18)">[http]</text><text class="cls-10" transform="translate(57.52 455.18)">document-database-pg</text><text class="cls-10" transform="translate(312.52 455.18)">Notification Service</text><text class="cls-10" transform="translate(407.52 557.43)">Message Bus KF</text><text class="cls-10" transform="translate(978.52 456.18)">Application / Service</text><rect class="cls-5" x="944.34" y="536.16" width="158.07" height="78.44"/><rect class="cls-5" x="954.93" y="547.56" width="158.07" height="78.44"/><text class="cls-12" transform="translate(969.02 578.06)">[Container:<tspan class="cls-13" x="48.92" y="0"> </tspan><tspan x="51.14" y="0">Anything suitable]</tspan></text><text class="cls-12" transform="translate(973.83 606.06)">Any service internal to SO <tspan x="13.33" y="12">produce notifications</tspan></text><text class="cls-10" transform="translate(979.52 563.18)">Application / Service</text><rect class="cls-5" x="946.34" y="649.16" width="158.07" height="78.44"/><rect class="cls-5" x="956.93" y="660.56" width="158.07" height="78.44"/><text class="cls-12" transform="translate(971.02 691.06)">[Container:<tspan class="cls-13" x="48.92" y="0"> </tspan><tspan x="51.14" y="0">Anything suitable]</tspan></text><text class="cls-12" transform="translate(975.83 719.06)">Any service internal to SO <tspan x="9.44" y="12">producing notifications</tspan></text><text class="cls-10" transform="translate(981.52 676.18)">Application / Service</text><text class="cls-10" transform="translate(272.52 669.43)">Other Message Bus</text><text class="cls-14" transform="translate(34.04 331.77)">Implements<tspan class="cls-19" x="46.52" y="0"> </tspan><tspan class="cls-20" x="48.85" y="0">TMF641 </tspan><tspan x="2.91" y="10.8">Notification protocol</tspan></text><text class="cls-14" transform="translate(57.7 501.77)">Stores Subscription Data</text><text class="cls-14" transform="translate(294.69 493.77)">Reads topics on KF bus and <tspan x="-4" y="10.8">dispatches to registered clients</tspan></text><text class="cls-14" transform="translate(384.95 591.77)">Messaging sysyem to provide <tspan x="4.75" y="10.8">notification mechanism and </tspan><tspan x="1" y="21.6">asynchronous communication</tspan></text><text class="cls-14" transform="translate(256.95 709.77)">Messaging sysyem to provide <tspan x="4.75" y="10.8">notification mechanism and </tspan><tspan x="1" y="21.6">asynchronous communication</tspan></text><text class="cls-14" transform="translate(196.04 331.77)">Implements<tspan class="cls-19" x="46.52" y="0"> </tspan><tspan class="cls-20" x="48.85" y="0">TMF633 </tspan><tspan x="2.91" y="10.8">Notification protocol</tspan></text><text class="cls-14" transform="translate(343.95 331.77)">Implements ETSI SOL005 <tspan x="14" y="10.8">Notification protocol</tspan></text><text class="cls-14" transform="translate(504.95 328.77)">Implements ETSI SOL003 <tspan x="14" y="10.8">Notification protocol</tspan></text><text class="cls-14" transform="translate(667.95 329.77)">Implements custom / future <tspan x="16" y="10.8">Notification protocol</tspan></text><rect class="cls-21" x="1" y="126" width="1161" height="622"/><text class="cls-22" transform="translate(16.46 735.3)">Service Orchestrator</text><rect class="cls-3" x="946" y="1" width="219" height="103"/><rect class="cls-8" x="960.75" y="14" width="35" height="15"/><rect class="cls-5" x="960.75" y="83" width="35" height="15"/><rect class="cls-9" x="960.75" y="37" width="35" height="15"/><rect class="cls-23" x="960.75" y="60" width="35" height="15"/></g></g></svg>