<svg xmlns="http://www.w3.org/2000/svg" xmlns:xlink="http://www.w3.org/1999/xlink" viewBox="0 0 809.11 284.55"><defs><style>.cls-1,.cls-10,.cls-3,.cls-7,.cls-8,.cls-9{fill:none;}.cls-2,.cls-6{fill:#242424;fill-rule:evenodd;}.cls-10,.cls-15,.cls-3,.cls-6,.cls-7,.cls-8,.cls-9{stroke:#000;stroke-miterlimit:10;}.cls-3{stroke-width:3px;}.cls-4{clip-path:url(#clip-path);}.cls-5{fill:#010101;}.cls-7{stroke-width:4px;}.cls-8{stroke-dasharray:12 18;}.cls-9{stroke-dasharray:12 12;}.cls-11{font-size:12px;font-family:ArialMT, Arial;}.cls-12{letter-spacing:-0.02em;}.cls-13{letter-spacing:-0.06em;}.cls-14{letter-spacing:-0.11em;}</style><clipPath id="clip-path"><polygon class="cls-1" points="266.3 131.11 363.16 131.11 363.16 34.11 266.3 34.11 266.3 131.11 266.3 131.11"/></clipPath></defs><g id="Layer_2" data-name="Layer 2"><g id="Layer_1-2" data-name="Layer 1"><g id="icon_light_calendar" data-name="icon/light/calendar"><path id="shape" class="cls-2" d="M19.54,0V4.63H47.35V0H52V4.63H65.89V57.94H1V4.63H14.9V0ZM61.25,23.17H5.63V53.3H61.25ZM21.86,41.71v4.64H12.59V41.71Zm16.22,0v4.64H28.81V41.71Zm16.22,0v4.64H45V41.71ZM21.86,30.13v4.63H12.59V30.13Zm16.22,0v4.63H28.81V30.13Zm16.22,0v4.63H45V30.13ZM14.9,9.27H5.63v9.27H61.25V9.27H52V13.9H47.35V9.27H19.54V13.9H14.9Z"/></g><g id="icon_light_calendar-2" data-name="icon/light/calendar"><path id="shape-2" data-name="shape" class="cls-2" d="M18.54,105v4.63H46.35V105H51v4.63H64.89v53.31H0V109.63H13.9V105Zm41.71,23.17H4.63V158.3H60.25ZM20.86,146.71v4.64H11.59v-4.64Zm16.22,0v4.64H27.81v-4.64Zm16.22,0v4.64H44v-4.64ZM20.86,135.13v4.63H11.59v-4.63Zm16.22,0v4.63H27.81v-4.63Zm16.22,0v4.63H44v-4.63ZM13.9,114.27H4.63v9.27H60.25v-9.27H51v4.63H46.35v-4.63H18.54v4.63H13.9Z"/></g><g id="icon_light_filter" data-name="icon/light/filter"><path id="shape-3" data-name="shape" class="cls-2" d="M473.94,89.61l19.28-33.73H435.38l19.28,33.73v33.74l19.28-12Zm-4.82,19V88.33L484.91,60.7H443.69l15.79,27.63v26.33Z"/></g><g id="icon_light_email" data-name="icon/light/email"><path id="shape-4" data-name="shape" class="cls-2" d="M723.21,115.35V57.88h80.47v57.47ZM791.6,63.62H735.28l28.16,19.5ZM729,66.23v43.38h69V66.23L763.44,90.11Z"/></g><rect class="cls-3" x="106.11" y="69.73" width="29.5" height="25.77"/><rect class="cls-3" x="135.69" y="69.73" width="29.5" height="25.77"/><rect class="cls-3" x="165.11" y="69.73" width="29.5" height="25.77"/><rect class="cls-3" x="194.69" y="69.73" width="29.5" height="25.77"/><g class="cls-4"><polygon class="cls-5" points="280.78 64.92 284.64 64.92 284.64 68.78 280.78 68.78 280.78 64.92 280.78 64.92"/><path class="cls-5" d="M323.25,49.55v27H358v-27Zm30.9,23.16h-27V53.41h27v19.3Z"/><polygon class="cls-5" points="331.02 57.16 334.88 57.16 334.88 61.02 331.02 61.02 331.02 57.16 331.02 57.16"/><path class="cls-5" d="M352.8,80.44H319.32V61.13h0V57.27H273.09v63.66h81.1V80.44ZM277,117.07V61.13h38.62V84.3h34.75v32.88L277,117.07Z"/></g><g id="icon_light_tasks" data-name="icon/light/tasks"><path id="shape-5" data-name="shape" class="cls-2" d="M425,210.81v5.27h13.16v68.47H380.18V216.08h13.16v-5.27Zm-31.61,10.54h-7.9v57.93h47.41V221.35H425v5.26H393.34ZM425,263.48v5.27H393.34v-5.27Zm0-13.17v5.27H393.34v-5.27Zm0-13.16v5.26H393.34v-5.26Zm-5.27-21.07H398.61v5.27h21.07Z"/></g><g id="icon_light_arrow-down" data-name="icon/light/arrow-down"><polygon id="shape-6" data-name="shape" class="cls-6" points="598.33 89.25 609.46 90.04 590.49 106.49 591.85 108.06 610.82 91.61 610.03 102.73 612.08 102.88 613.12 88.24 598.48 87.2 598.33 89.25"/></g><g id="icon_light_arrow-down-2" data-name="icon/light/arrow-down"><polygon id="shape-7" data-name="shape" class="cls-6" points="629.82 86.89 618.69 86.21 637.5 69.57 636.12 68.01 617.31 84.65 617.99 73.52 615.94 73.4 615.05 88.04 629.7 88.94 629.82 86.89"/></g><rect class="cls-7" x="582.37" y="59.25" width="63" height="56.37"/><line class="cls-8" x1="437.48" y1="254.57" x2="758.59" y2="119.51"/><polygon points="757.89 122.96 766.76 116.08 755.64 117.6 757.89 122.96"/><line class="cls-8" x1="437.48" y1="246.32" x2="602.83" y2="122.31"/><polygon points="602.99 125.82 609.92 116.99 599.5 121.17 602.99 125.82"/><line class="cls-9" x1="437.48" y1="232.56" x2="463.86" y2="121.94"/><polygon points="466.23 124.54 465.92 113.33 460.57 123.2 466.23 124.54"/><line class="cls-8" x1="378.61" y1="253.44" x2="320.13" y2="126.87"/><polygon points="323.6 127.45 316.41 118.83 318.32 129.89 323.6 127.45"/><line class="cls-10" x1="225.61" y1="84.44" x2="263.75" y2="84.44"/><polygon points="261.77 87.34 272.61 84.44 261.77 81.53 261.77 87.34"/><line class="cls-10" x1="354.11" y1="84.44" x2="443.25" y2="84.44"/><polygon points="441.27 87.34 452.11 84.44 441.27 81.53 441.27 87.34"/><line class="cls-10" x1="476.11" y1="84.44" x2="571.25" y2="84.44"/><polygon points="569.27 87.34 580.11 84.44 569.27 81.53 569.27 87.34"/><line class="cls-10" x1="647.11" y1="84.44" x2="715.25" y2="84.44"/><polygon points="713.27 87.34 724.11 84.44 713.27 81.53 713.27 87.34"/><text class="cls-11" transform="translate(131.81 59.52)">Event Queue</text><text class="cls-11" transform="translate(230.81 77.52)">Event</text><text class="cls-11" transform="translate(245.81 34.52)">Match Event<tspan class="cls-12" x="66.7" y="0"> </tspan><tspan class="cls-13" x="69.81" y="0">T</tspan><tspan x="76.48" y="0">ype and</tspan><tspan class="cls-12" x="119.19" y="0"> </tspan><tspan class="cls-14" x="122.3" y="0">T</tspan><tspan x="128.3" y="0">enant</tspan></text><text class="cls-11" transform="translate(431.81 35.52)">Check Filter</text><text class="cls-11" transform="translate(567.81 36.52)">Reduce Payload</text><text class="cls-11" transform="translate(707.81 37.52)">Deliver Notification</text><text class="cls-11" transform="translate(274.81 183.52)">Event<tspan class="cls-12" x="30.69" y="0"> </tspan><tspan class="cls-13" x="33.8" y="0">T</tspan><tspan x="40.47" y="0">ype</tspan><tspan class="cls-12" x="59.82" y="0"> </tspan><tspan class="cls-14" x="62.94" y="0">T</tspan><tspan x="68.94" y="0">enant</tspan></text><text class="cls-11" transform="translate(405.81 194.52)">Filter Criteria</text><text class="cls-11" transform="translate(572.81 190.52)">Address</text><text class="cls-11" transform="translate(488.81 200.52)">Fields</text><text class="cls-11" transform="translate(368.81 106.52)">Notifications</text><line class="cls-15" x1="699.11" y1="78.94" x2="685.11" y2="94.94"/><line class="cls-15" x1="694.11" y1="77.94" x2="680.11" y2="93.94"/><line class="cls-15" x1="535.08" y1="78.65" x2="521.08" y2="94.65"/><line class="cls-15" x1="530.08" y1="77.65" x2="516.08" y2="93.65"/><line class="cls-15" x1="413.08" y1="76.65" x2="399.08" y2="92.65"/><line class="cls-15" x1="408.08" y1="75.65" x2="394.08" y2="91.65"/><line x1="64.41" y1="137.17" x2="130.45" y2="96.59"/><line class="cls-10" x1="64.41" y1="137.17" x2="122.9" y2="101.22"/><polygon points="122.74 104.74 130.45 96.59 119.69 99.79 122.74 104.74"/><line x1="64.61" y1="31.44" x2="130.61" y2="68.44"/><line class="cls-10" x1="64.61" y1="31.44" x2="122.89" y2="64.1"/><polygon points="119.74 65.67 130.61 68.44 122.58 60.6 119.74 65.67"/></g></g></svg>